<svg version="1.1" id="Layer_1" xmlns="http://www.w3.org/2000/svg" xmlns:xlink="http://www.w3.org/1999/xlink" x="0px" y="0px"
	 width="100%" viewBox="0 0 538 380" enable-background="new 0 0 538 380" xml:space="preserve">
<path fill="#000000" opacity="1.000000" stroke="none" 
	d="
M340.000000,381.000000 
	C226.666672,381.000000 113.833336,381.000000 1.000000,381.000000 
	C1.000000,254.333328 1.000000,127.666664 1.000000,1.000000 
	C180.333328,1.000000 359.666656,1.000000 539.000000,1.000000 
	C539.000000,127.666664 539.000000,254.333328 539.000000,381.000000 
	C472.833344,381.000000 406.666656,381.000000 340.000000,381.000000 
M250.055359,227.770157 
	C251.825775,228.068298 253.596191,228.366440 255.366608,228.664597 
	C255.188858,228.109970 255.011093,227.555344 254.973358,226.072571 
	C254.926697,213.710403 254.880020,201.348251 254.887573,188.479401 
	C254.598907,188.375153 254.310257,188.270905 253.268951,188.027542 
	C252.507996,188.073914 251.747040,188.120285 250.479401,188.112427 
	C250.375153,188.401093 250.270905,188.689743 250.026672,189.909195 
	C250.073334,202.272644 250.119995,214.636108 250.055359,227.770157 
M222.206772,200.789780 
	C225.822754,206.171082 229.437378,211.553268 233.055420,216.933167 
	C234.363129,218.877686 236.260086,220.650177 236.873932,222.791855 
	C238.285919,227.718231 240.148743,229.253494 245.395370,227.917603 
	C249.603165,226.846207 247.927933,223.899704 247.197006,221.182877 
	C246.777634,219.624069 247.007950,217.881073 247.005798,216.220932 
	C246.993744,206.941574 247.000000,197.662201 247.000000,188.302002 
	C244.773941,188.302002 243.055847,188.302002 240.880981,188.302002 
	C240.880981,198.062729 240.880981,207.536179 240.880981,218.408737 
	C234.863831,209.173431 229.868759,200.970627 224.267487,193.205063 
	C222.346268,190.541473 220.452896,185.888718 215.308868,188.578049 
	C215.308868,201.641525 215.308868,214.713547 215.308868,228.085556 
	C217.036423,227.916840 218.422852,227.781448 219.525375,227.673767 
	C220.004913,218.518234 220.461761,209.795792 221.307312,200.701294 
	C221.435333,200.575684 221.563354,200.450073 222.206772,200.789780 
M288.706451,225.687546 
	C288.832184,225.815399 288.957916,225.943237 289.064301,226.899902 
	C290.896484,227.347931 292.728699,227.795944 294.629486,228.260742 
	C294.629486,220.327087 294.629486,213.262421 294.629486,206.243103 
	C287.980164,206.243103 281.704010,206.243103 275.291504,206.243103 
	C275.291504,208.542694 275.291504,210.594269 275.291504,212.897400 
	C280.041687,212.897400 284.507599,212.897400 289.059296,212.897400 
	C288.649689,214.108749 288.042603,215.064651 288.051605,216.014725 
	C288.107697,221.913513 282.466614,223.639999 277.918365,224.079269 
	C267.429474,225.092255 261.645813,214.051849 263.028778,204.736298 
	C263.697693,200.230453 268.959808,193.672958 272.290039,193.028992 
	C282.138611,191.124619 285.954834,193.398438 288.809784,202.788910 
	C290.818817,202.788910 292.788239,202.788910 295.638672,202.788910 
	C293.662140,198.230270 292.919678,192.855560 289.844818,190.391830 
	C286.331390,187.576706 280.807434,186.744522 276.030853,186.235565 
	C273.298370,185.944412 269.580536,187.254837 267.602661,189.177628 
	C263.904816,192.772491 259.495270,196.960098 258.435730,201.598648 
	C257.194427,207.032959 256.726288,213.331482 259.864197,219.118637 
	C261.945587,222.957275 269.208893,229.591415 273.120941,230.044693 
	C278.958740,230.721100 283.854309,228.766861 288.706451,225.687546 
M484.622375,260.238342 
	C481.182983,260.238342 477.743591,260.238342 472.603760,260.238342 
	C474.550598,264.257629 475.934601,267.298492 477.474945,270.258057 
	C481.078766,277.182281 491.601501,277.118134 499.352661,275.054321 
	C503.754364,273.882324 507.405243,270.768311 507.991577,265.507660 
	C508.634216,259.742157 507.330841,255.035950 501.208984,252.920700 
	C499.308746,252.264130 497.417877,251.578842 495.506042,250.957962 
	C492.467438,249.971115 489.414856,249.027344 485.732300,247.864578 
	C490.583252,243.796249 493.364716,244.159546 495.994080,248.058594 
	C496.582062,248.930542 497.785370,249.803223 498.782471,249.902664 
	C501.372681,250.160995 504.005829,249.989456 506.542084,249.989456 
	C507.126740,244.854492 504.068451,236.582489 501.097839,236.311844 
	C495.114868,235.766724 488.716125,234.906372 483.095825,236.423813 
	C475.052155,238.595596 473.409424,249.074509 479.484802,254.912643 
	C481.461731,256.812378 483.867737,258.265503 485.702148,260.303162 
	C485.582855,260.435394 485.463531,260.567657 484.622375,260.238342 
M385.696991,250.701782 
	C385.564941,250.582199 385.432861,250.462601 385.724915,249.704758 
	C385.129425,247.488129 385.051544,244.930450 383.852905,243.111206 
	C376.994019,232.701096 365.855072,230.200104 356.233673,236.957397 
	C344.485870,245.208130 343.154449,262.001678 353.848572,271.803192 
	C365.239868,282.243683 379.557648,277.207031 385.295105,264.393463 
	C387.249756,266.138550 389.152466,267.329803 390.377930,269.013855 
	C398.208221,279.774536 411.395050,280.040802 420.141754,272.180389 
	C427.548737,265.524017 428.074249,250.887711 423.433167,243.326294 
	C416.193970,231.531967 402.513184,230.460480 393.133270,238.783844 
	C389.782959,241.756775 388.372833,246.916153 385.696991,250.701782 
M39.719131,156.804642 
	C37.918385,161.336166 35.357368,165.720551 34.446949,170.424408 
	C30.240578,192.157394 30.039751,213.390015 41.792797,233.514252 
	C47.444206,243.190918 57.824883,253.436768 68.450630,261.476746 
	C74.252304,265.866577 80.562286,268.648804 87.196373,271.425415 
	C94.125832,274.325623 101.102180,275.857391 108.339348,275.909088 
	C137.990448,276.121033 167.643951,275.997589 197.296570,275.997589 
	C199.058762,275.997589 200.820938,275.997589 202.848419,275.997589 
	C202.848419,248.810806 202.848419,222.355988 202.921738,194.979080 
	C202.263000,186.356445 201.792007,177.713058 200.842728,169.122528 
	C200.514465,166.152023 199.144882,163.252762 197.992401,160.426361 
	C195.652313,154.687317 193.392746,148.890717 190.607681,143.365997 
	C188.537491,139.259369 186.179321,135.093994 183.091354,131.746307 
	C176.434509,124.529610 167.766418,120.076523 159.265366,115.290169 
	C149.873016,110.001999 140.089996,106.439285 129.446487,106.114815 
	C116.019165,105.705482 102.508583,105.004913 89.689018,110.914658 
	C81.791153,114.555519 73.834183,117.862450 66.875122,123.282326 
	C56.963802,131.001511 49.365131,140.719955 42.173634,150.816956 
	C41.095131,152.331177 40.816826,154.415314 39.719131,156.804642 
M473.000000,243.561279 
	C473.000000,240.808105 473.000000,238.054947 473.000000,235.009842 
	C468.354889,235.009842 464.512878,234.759018 460.736084,235.145630 
	C459.411377,235.281235 457.554871,236.750473 457.131775,238.010513 
	C455.488739,242.903717 454.389282,247.976730 452.930359,252.936600 
	C452.619598,253.993088 451.649536,254.855652 451.097015,255.644943 
	C448.663940,249.163818 446.408905,242.993484 443.982452,236.891296 
	C443.663757,236.089813 442.489929,235.142639 441.674561,235.106323 
	C437.587646,234.924240 433.488251,235.022903 429.313629,235.022903 
	C429.313629,248.993683 429.313629,262.235992 429.313629,275.569214 
	C433.332581,275.569214 437.029297,275.569214 441.357239,275.569214 
	C441.357239,271.375427 441.357239,267.611267 441.357239,263.847107 
	C441.586060,263.857452 441.814850,263.867798 442.043671,263.878143 
	C443.534515,267.859009 445.025330,271.839874 446.466370,275.687805 
	C449.765198,275.687805 452.701080,275.687805 455.448242,275.687805 
	C457.025055,270.780121 458.492157,266.213959 459.959259,261.647766 
	C460.360931,261.726227 460.762634,261.804688 461.164307,261.883118 
	C461.164307,266.452423 461.164307,271.021729 461.164307,275.697327 
	C465.299347,275.697327 468.878265,275.697327 473.000000,275.697327 
	C473.000000,265.118591 473.000000,254.833084 473.000000,243.561279 
M311.509521,228.000000 
	C318.934814,228.000000 326.360077,228.000000 333.682495,228.000000 
	C333.682495,221.936340 333.682495,216.585663 333.682495,211.002502 
	C337.296753,211.002502 340.789734,210.880829 344.270660,211.033722 
	C348.481293,211.218674 351.970398,215.079407 351.996277,219.346817 
	C352.015167,222.463913 352.000000,225.581223 352.000000,228.655426 
	C354.634308,228.655426 356.686279,228.655426 358.714813,228.655426 
	C359.593079,221.216904 359.369812,214.346680 355.789398,209.827454 
	C357.033234,204.812515 358.771484,200.843964 358.732056,196.893173 
	C358.705780,194.264069 356.735840,190.795197 354.545013,189.290909 
	C352.395599,187.815018 348.870270,188.090576 345.942230,188.048004 
	C336.897247,187.916519 327.849121,188.000000 318.802216,188.000000 
	C312.016907,188.000000 305.231598,188.000000 298.303162,188.000000 
	C298.303162,201.549637 298.303162,214.602829 298.303162,228.000000 
	C302.572754,228.000000 306.543121,228.000000 311.509521,228.000000 
M257.587616,235.000000 
	C255.170288,235.000000 252.752975,235.000000 250.331711,235.000000 
	C250.331711,249.044617 250.331711,262.276794 250.331711,275.566528 
	C261.025909,275.566528 271.382935,275.566528 281.623047,275.566528 
	C281.623047,271.882324 281.623047,268.636139 281.623047,264.979309 
	C274.976746,264.979309 268.698822,264.979309 262.362579,264.979309 
	C262.096588,263.162476 261.890472,261.754547 261.601776,259.782837 
	C267.813141,259.782837 273.728821,259.782837 279.683350,259.782837 
	C279.683350,256.332794 279.683350,253.420059 279.683350,249.607681 
	C273.410950,249.607681 267.429260,249.607681 261.447571,249.607681 
	C261.338501,248.971008 261.229401,248.334335 261.120300,247.697662 
	C262.505951,247.133072 263.867432,246.166275 265.281860,246.081421 
	C269.096344,245.852539 272.933624,246.025955 276.761353,245.989273 
	C280.122284,245.957077 282.288055,244.691299 282.020477,240.852173 
	C281.897308,239.084564 281.999512,237.301239 281.999512,235.000000 
	C273.795654,235.000000 266.179840,235.000000 257.587616,235.000000 
M332.685547,249.999924 
	C326.900452,249.944443 326.900452,249.944443 327.693878,245.695190 
	C333.623444,245.695190 339.544464,245.695190 345.574402,245.695190 
	C345.574402,242.022278 345.574402,238.663956 345.574402,235.363495 
	C335.238342,235.363495 325.330811,235.363495 315.300720,235.363495 
	C315.300720,248.967377 315.300720,262.206085 315.300720,275.588654 
	C325.967529,275.588654 336.329071,275.588654 346.643585,275.588654 
	C346.643585,271.925140 346.643585,268.677582 346.643585,264.997742 
	C341.161865,264.997742 336.025238,264.867554 330.898804,265.040405 
	C327.045776,265.170319 326.333313,263.585724 327.770325,259.854736 
	C333.362549,259.854736 338.951538,259.854736 344.546875,259.854736 
	C344.546875,256.303284 344.546875,253.277603 344.546875,250.000000 
	C340.607117,250.000000 337.117950,250.000000 332.685547,249.999924 
M226.000137,270.348663 
	C226.000137,272.105530 226.000137,273.862396 226.000137,275.683350 
	C230.336609,275.683350 233.911758,275.683350 238.146225,275.683350 
	C238.146225,265.679230 238.146225,255.978638 238.146225,246.365417 
	C249.768356,245.257690 250.223846,244.741806 248.252945,235.000000 
	C240.248932,235.000000 232.136383,234.999969 224.023834,235.000000 
	C214.555801,235.000031 214.550385,235.000366 215.077072,244.215820 
	C215.103119,244.671616 215.363739,245.114029 215.582397,245.762024 
	C218.981827,245.762024 222.345551,245.762024 226.000000,245.762024 
	C226.000000,253.779861 226.000000,261.581970 226.000137,270.348663 
M313.999084,271.499725 
	C313.937469,265.012695 313.937469,265.010071 307.318878,265.001007 
	C303.371368,264.995636 299.423859,265.000031 294.801880,265.000031 
	C294.801880,255.292221 294.801880,245.263153 294.801880,235.370987 
	C290.545654,235.370987 286.974579,235.370987 283.445679,235.370987 
	C283.445679,249.077698 283.445679,262.408691 283.445679,275.990997 
	C292.850616,275.990997 301.813354,275.909821 310.773071,276.039001 
	C313.565918,276.079254 314.234436,274.784210 313.999084,271.499725 
M332.422363,229.940048 
	C332.580994,229.760345 332.739624,229.580627 332.898254,229.400909 
	C332.767212,229.299606 332.636261,229.109787 332.505066,229.109634 
	C321.651123,229.095963 310.797180,229.097015 299.943207,229.097015 
	C299.943420,229.395416 299.943634,229.693802 299.943817,229.992203 
	C310.504211,229.992203 321.064575,229.992203 332.422363,229.940048 
z"/>
<path fill="#EE7031" opacity="1.000000" stroke="none" 
	d="
M40.168358,156.235825 
	C40.816826,154.415314 41.095131,152.331177 42.173634,150.816956 
	C49.365131,140.719955 56.963802,131.001511 66.875122,123.282326 
	C73.834183,117.862450 81.791153,114.555519 89.689018,110.914658 
	C102.508583,105.004913 116.019165,105.705482 129.446487,106.114815 
	C140.089996,106.439285 149.873016,110.001999 159.265366,115.290169 
	C167.766418,120.076523 176.434509,124.529610 183.091354,131.746307 
	C186.179321,135.093994 188.537491,139.259369 190.607681,143.365997 
	C193.392746,148.890717 195.652313,154.687317 197.992401,160.426361 
	C199.144882,163.252762 200.514465,166.152023 200.842728,169.122528 
	C201.792007,177.713058 202.263000,186.356445 202.546906,195.540100 
	C201.071716,198.254791 200.164795,200.536865 198.835770,202.538742 
	C194.308655,209.357834 189.632767,216.078156 185.099731,222.355362 
	C187.205215,215.322128 185.850159,209.648376 180.237350,203.828156 
	C180.614517,205.600189 180.668121,206.222916 180.879013,206.786819 
	C183.664246,214.233688 182.663773,217.309601 175.844086,221.131897 
	C173.704315,222.331161 171.288834,223.038498 168.807800,223.843781 
	C168.015686,224.057602 167.415314,224.398666 166.399292,224.844681 
	C163.994232,225.164230 162.004852,225.378830 160.066010,225.198502 
	C160.136520,224.274063 160.156479,223.744537 160.281723,222.742310 
	C160.416214,210.612930 160.445435,198.956268 160.905151,187.216980 
	C164.157211,187.015182 166.978043,186.820084 169.800537,186.791550 
	C177.165009,186.717102 178.925385,183.604568 175.301514,176.429123 
	C174.228928,175.179504 173.273376,174.249527 172.086502,173.068970 
	C168.908676,172.657333 165.962173,172.496231 162.546478,172.346375 
	C151.806717,172.364899 141.536148,172.372192 130.961548,172.253860 
	C130.020401,172.225067 129.383255,172.321915 128.228745,172.340179 
	C127.366051,172.212036 127.020729,172.162491 126.317574,171.969421 
	C121.551422,171.667618 117.138008,171.342087 112.738564,171.475891 
	C111.717827,171.506943 110.744728,173.104309 109.738754,174.450623 
	C109.717514,182.559906 109.707230,190.199509 109.370148,197.834991 
	C108.391418,197.864624 107.739487,197.898376 106.911049,197.642578 
	C105.379120,195.008759 104.023705,192.664520 102.683502,190.008301 
	C102.189400,189.096985 101.680092,188.497650 100.982590,187.664291 
	C100.420975,186.724518 100.047562,186.018768 99.690582,185.000732 
	C99.187416,184.095947 98.667809,183.503448 98.045135,182.744659 
	C97.942085,182.578354 97.794762,182.215866 97.799652,181.871979 
	C96.882301,180.343567 95.960045,179.159042 94.851089,177.732849 
	C93.793213,176.641922 92.922058,175.792664 91.914200,174.623230 
	C86.625648,169.961670 80.447220,171.861069 74.647247,171.513336 
	C71.230507,171.308472 69.987465,173.176727 70.041061,176.427750 
	C70.128212,181.713913 70.169868,187.008057 69.963356,192.288391 
	C69.877335,194.487823 69.104790,196.660431 68.370964,198.620667 
	C66.725899,197.192520 65.311852,196.033630 63.989506,194.778152 
	C55.076855,186.316315 54.257458,181.770462 59.779964,171.681351 
	C52.033886,173.328659 49.347149,177.676895 49.400665,187.671249 
	C44.399326,179.821152 42.844376,171.380905 42.039883,162.681000 
	C41.837608,160.493622 40.814331,158.382172 40.168358,156.235825 
z"/>
<path fill="#33A837" opacity="1.000000" stroke="none" 
	d="
M39.943745,156.520233 
	C40.814331,158.382172 41.837608,160.493622 42.039883,162.681000 
	C42.844376,171.380905 44.399326,179.821152 49.484520,187.884842 
	C53.142338,192.637238 56.382729,196.907883 59.778721,201.448853 
	C60.613430,202.168640 61.292545,202.618118 62.102470,203.282516 
	C62.528267,203.648514 62.823254,203.799576 63.230488,204.269135 
	C69.733856,207.513947 71.630493,212.630005 70.616959,219.261688 
	C70.393433,220.724243 70.457733,222.274597 70.670845,223.743713 
	C70.799965,224.633759 71.428665,226.154861 71.902794,226.182251 
	C76.531143,226.449478 81.238571,226.911255 85.772659,226.262863 
	C87.077400,226.076294 87.894547,222.480103 89.149643,220.028397 
	C92.268425,221.046570 95.677811,222.159622 99.383087,223.455124 
	C100.135979,223.692017 100.592979,223.746460 101.228622,224.035980 
	C101.948227,224.451462 102.489197,224.631897 103.230453,224.972748 
	C103.764809,225.178864 104.098877,225.224579 104.646210,225.541748 
	C105.922134,226.098526 106.984795,226.383850 108.366669,226.777893 
	C109.132912,226.884644 109.579926,226.882660 110.290558,227.050385 
	C111.732658,227.541367 112.911148,227.862671 114.432877,228.360199 
	C115.538933,228.605652 116.301750,228.674866 117.346985,228.976349 
	C121.438232,230.005341 125.247078,230.802048 129.378143,231.710251 
	C130.151184,231.805588 130.602005,231.789429 131.396149,231.938934 
	C141.345993,232.585312 150.993073,233.803986 160.544357,233.279312 
	C166.602585,232.946518 172.518280,230.019333 178.717072,228.094406 
	C178.985397,227.758545 179.034531,227.583923 179.273697,227.349960 
	C179.769333,226.897827 180.074936,226.505020 180.703094,225.992096 
	C182.354980,224.860046 183.684326,223.848114 185.013672,222.836197 
	C189.632767,216.078156 194.308655,209.357834 198.835770,202.538742 
	C200.164795,200.536865 201.071716,198.254791 202.510254,196.001144 
	C202.848419,222.355988 202.848419,248.810806 202.848419,275.997589 
	C200.820938,275.997589 199.058762,275.997589 197.296570,275.997589 
	C167.643951,275.997589 137.990448,276.121033 108.339348,275.909088 
	C101.102180,275.857391 94.125832,274.325623 87.196373,271.425415 
	C80.562286,268.648804 74.252304,265.866577 68.450630,261.476746 
	C57.824883,253.436768 47.444206,243.190918 41.792797,233.514252 
	C30.039751,213.390015 30.240578,192.157394 34.446949,170.424408 
	C35.357368,165.720551 37.918385,161.336166 39.943745,156.520233 
z"/>
<path fill="#31A836" opacity="1.000000" stroke="none" 
	d="
M386.077118,251.077530 
	C388.372833,246.916153 389.782959,241.756775 393.133270,238.783844 
	C402.513184,230.460480 416.193970,231.531967 423.433167,243.326294 
	C428.074249,250.887711 427.548737,265.524017 420.141754,272.180389 
	C411.395050,280.040802 398.208221,279.774536 390.377930,269.013855 
	C389.152466,267.329803 387.249756,266.138550 385.295105,264.393463 
	C379.557648,277.207031 365.239868,282.243683 353.848572,271.803192 
	C343.154449,262.001678 344.485870,245.208130 356.233673,236.957397 
	C365.855072,230.200104 376.994019,232.701096 383.852905,243.111206 
	C385.051544,244.930450 385.129425,247.488129 385.162354,250.245087 
	C379.951294,250.899185 375.185150,252.491653 371.809357,246.863022 
	C370.916443,245.374207 366.143463,245.581039 363.321228,246.042786 
	C359.897461,246.602951 360.436737,249.518097 360.871674,252.264526 
	C361.228760,254.519272 361.505035,257.134583 360.709625,259.153809 
	C358.890228,263.772461 362.143372,264.907288 365.007050,265.801422 
	C370.320557,267.460480 373.188110,265.065186 374.630463,258.217163 
	C378.275482,258.217163 381.981506,258.217163 386.077118,258.217163 
	C386.077118,255.684555 386.077118,253.381042 386.077118,251.077530 
M413.980804,251.049332 
	C413.347595,246.347748 410.347229,244.820847 405.986298,244.995560 
	C398.551361,245.293457 395.365417,252.978699 398.861053,261.204834 
	C400.864868,265.920410 404.491486,266.416504 408.529724,265.866425 
	C412.623016,265.308838 414.148804,262.354919 414.011200,258.388153 
	C413.936676,256.239594 413.996216,254.086365 413.980804,251.049332 
z"/>
<path fill="#31A836" opacity="1.000000" stroke="none" 
	d="
M473.000000,244.054428 
	C473.000000,254.833084 473.000000,265.118591 473.000000,275.697327 
	C468.878265,275.697327 465.299347,275.697327 461.164307,275.697327 
	C461.164307,271.021729 461.164307,266.452423 461.164307,261.883118 
	C460.762634,261.804688 460.360931,261.726227 459.959259,261.647766 
	C458.492157,266.213959 457.025055,270.780121 455.448242,275.687805 
	C452.701080,275.687805 449.765198,275.687805 446.466370,275.687805 
	C445.025330,271.839874 443.534515,267.859009 442.043671,263.878143 
	C441.814850,263.867798 441.586060,263.857452 441.357239,263.847107 
	C441.357239,267.611267 441.357239,271.375427 441.357239,275.569214 
	C437.029297,275.569214 433.332581,275.569214 429.313629,275.569214 
	C429.313629,262.235992 429.313629,248.993683 429.313629,235.022903 
	C433.488251,235.022903 437.587646,234.924240 441.674561,235.106323 
	C442.489929,235.142639 443.663757,236.089813 443.982452,236.891296 
	C446.408905,242.993484 448.663940,249.163818 451.097015,255.644943 
	C451.649536,254.855652 452.619598,253.993088 452.930359,252.936600 
	C454.389282,247.976730 455.488739,242.903717 457.131775,238.010513 
	C457.554871,236.750473 459.411377,235.281235 460.736084,235.145630 
	C464.512878,234.759018 468.354889,235.009842 473.000000,235.009842 
	C473.000000,238.054947 473.000000,240.808105 473.000000,244.054428 
z"/>
<path fill="#EE6F30" opacity="1.000000" stroke="none" 
	d="
M311.011536,228.000000 
	C306.543121,228.000000 302.572754,228.000000 298.303162,228.000000 
	C298.303162,214.602829 298.303162,201.549637 298.303162,188.000000 
	C305.231598,188.000000 312.016907,188.000000 318.802216,188.000000 
	C327.849121,188.000000 336.897247,187.916519 345.942230,188.048004 
	C348.870270,188.090576 352.395599,187.815018 354.545013,189.290909 
	C356.735840,190.795197 358.705780,194.264069 358.732056,196.893173 
	C358.771484,200.843964 357.033234,204.812515 355.789398,209.827454 
	C359.369812,214.346680 359.593079,221.216904 358.714813,228.655426 
	C356.686279,228.655426 354.634308,228.655426 352.000000,228.655426 
	C352.000000,225.581223 352.015167,222.463913 351.996277,219.346817 
	C351.970398,215.079407 348.481293,211.218674 344.270660,211.033722 
	C340.789734,210.880829 337.296753,211.002502 333.682495,211.002502 
	C333.682495,216.585663 333.682495,221.936340 333.682495,228.000000 
	C326.360077,228.000000 318.934814,228.000000 311.011536,228.000000 
M321.270905,204.000427 
	C326.690643,203.488968 324.757294,207.007584 324.779083,210.201111 
	C317.656769,210.201111 310.920197,210.201111 304.242310,210.201111 
	C304.242310,214.669937 304.242310,218.606735 304.242310,223.012939 
	C311.859863,223.012939 319.246124,223.012939 326.686829,223.012939 
	C326.686829,213.142761 326.686829,202.797455 326.686829,193.086304 
	C318.991364,193.086304 311.589600,193.086304 304.235352,193.086304 
	C304.235352,196.990097 304.235352,200.262222 304.235352,204.000046 
	C309.744720,204.000046 315.032379,204.000046 321.270905,204.000427 
M338.987488,204.000122 
	C341.816406,204.005005 344.706909,203.648972 347.456604,204.118210 
	C350.104553,204.570053 351.978546,204.016785 351.852325,201.374603 
	C351.730164,198.818192 354.014069,194.774094 349.273895,194.061890 
	C344.070984,193.280167 338.777130,193.103394 333.718353,192.679413 
	C333.718353,197.660706 333.718353,201.688187 333.718353,205.644623 
	C337.731537,205.644623 341.773438,205.644623 345.815338,205.644623 
	C345.814880,205.355225 345.814423,205.065842 345.813965,204.776443 
	C342.593628,204.776443 339.373260,204.776443 336.152924,204.776443 
	C336.171356,204.557129 336.189819,204.337814 336.208252,204.118500 
	C336.857666,204.079346 337.507080,204.040192 338.987488,204.000122 
z"/>
<path fill="#31A836" opacity="1.000000" stroke="none" 
	d="
M258.075806,235.000000 
	C266.179840,235.000000 273.795654,235.000000 281.999512,235.000000 
	C281.999512,237.301239 281.897308,239.084564 282.020477,240.852173 
	C282.288055,244.691299 280.122284,245.957077 276.761353,245.989273 
	C272.933624,246.025955 269.096344,245.852539 265.281860,246.081421 
	C263.867432,246.166275 262.505951,247.133072 261.120300,247.697662 
	C261.229401,248.334335 261.338501,248.971008 261.447571,249.607681 
	C267.429260,249.607681 273.410950,249.607681 279.683350,249.607681 
	C279.683350,253.420059 279.683350,256.332794 279.683350,259.782837 
	C273.728821,259.782837 267.813141,259.782837 261.601776,259.782837 
	C261.890472,261.754547 262.096588,263.162476 262.362579,264.979309 
	C268.698822,264.979309 274.976746,264.979309 281.623047,264.979309 
	C281.623047,268.636139 281.623047,271.882324 281.623047,275.566528 
	C271.382935,275.566528 261.025909,275.566528 250.331711,275.566528 
	C250.331711,262.276794 250.331711,249.044617 250.331711,235.000000 
	C252.752975,235.000000 255.170288,235.000000 258.075806,235.000000 
z"/>
<path fill="#31A836" opacity="1.000000" stroke="none" 
	d="
M333.157166,249.999969 
	C337.117950,250.000000 340.607117,250.000000 344.546875,250.000000 
	C344.546875,253.277603 344.546875,256.303284 344.546875,259.854736 
	C338.951538,259.854736 333.362549,259.854736 327.770325,259.854736 
	C326.333313,263.585724 327.045776,265.170319 330.898804,265.040405 
	C336.025238,264.867554 341.161865,264.997742 346.643585,264.997742 
	C346.643585,268.677582 346.643585,271.925140 346.643585,275.588654 
	C336.329071,275.588654 325.967529,275.588654 315.300720,275.588654 
	C315.300720,262.206085 315.300720,248.967377 315.300720,235.363495 
	C325.330811,235.363495 335.238342,235.363495 345.574402,235.363495 
	C345.574402,238.663956 345.574402,242.022278 345.574402,245.695190 
	C339.544464,245.695190 333.623444,245.695190 327.693878,245.695190 
	C326.900452,249.944443 326.900452,249.944443 333.157166,249.999969 
z"/>
<path fill="#31A836" opacity="1.000000" stroke="none" 
	d="
M486.077484,259.922913 
	C483.867737,258.265503 481.461731,256.812378 479.484802,254.912643 
	C473.409424,249.074509 475.052155,238.595596 483.095825,236.423813 
	C488.716125,234.906372 495.114868,235.766724 501.097839,236.311844 
	C504.068451,236.582489 507.126740,244.854492 506.542084,249.989456 
	C504.005829,249.989456 501.372681,250.160995 498.782471,249.902664 
	C497.785370,249.803223 496.582062,248.930542 495.994080,248.058594 
	C493.364716,244.159546 490.583252,243.796249 485.732300,247.864578 
	C489.414856,249.027344 492.467438,249.971115 495.506042,250.957962 
	C497.417877,251.578842 499.308746,252.264130 501.208984,252.920700 
	C507.330841,255.035950 508.634216,259.742157 507.991577,265.507660 
	C507.405243,270.768311 503.754364,273.882324 499.352661,275.054321 
	C491.601501,277.118134 481.078766,277.182281 477.474945,270.258057 
	C475.934601,267.298492 474.550598,264.257629 472.603760,260.238342 
	C477.743591,260.238342 481.182983,260.238342 485.188171,260.780090 
	C486.588226,265.276428 491.731262,267.769501 495.134583,265.737305 
	C495.825439,265.324768 496.577423,264.038574 496.405853,263.393219 
	C496.166138,262.491730 495.196411,261.325378 494.343323,261.130920 
	C491.636871,260.513977 488.839630,260.295441 486.077484,259.922913 
z"/>
<path fill="#EE6F30" opacity="1.000000" stroke="none" 
	d="
M288.336273,225.297226 
	C283.854309,228.766861 278.958740,230.721100 273.120941,230.044693 
	C269.208893,229.591415 261.945587,222.957275 259.864197,219.118637 
	C256.726288,213.331482 257.194427,207.032959 258.435730,201.598648 
	C259.495270,196.960098 263.904816,192.772491 267.602661,189.177628 
	C269.580536,187.254837 273.298370,185.944412 276.030853,186.235565 
	C280.807434,186.744522 286.331390,187.576706 289.844818,190.391830 
	C292.919678,192.855560 293.662140,198.230270 295.638672,202.788910 
	C292.788239,202.788910 290.818817,202.788910 288.809784,202.788910 
	C285.954834,193.398438 282.138611,191.124619 272.290039,193.028992 
	C268.959808,193.672958 263.697693,200.230453 263.028778,204.736298 
	C261.645813,214.051849 267.429474,225.092255 277.918365,224.079269 
	C282.466614,223.639999 288.107697,221.913513 288.051605,216.014725 
	C288.042603,215.064651 288.649689,214.108749 289.059296,212.897400 
	C284.507599,212.897400 280.041687,212.897400 275.291504,212.897400 
	C275.291504,210.594269 275.291504,208.542694 275.291504,206.243103 
	C281.704010,206.243103 287.980164,206.243103 294.629486,206.243103 
	C294.629486,213.262421 294.629486,220.327087 294.629486,228.260742 
	C292.728699,227.795944 290.896484,227.347931 289.341400,226.370941 
	C289.669922,225.392792 289.721375,224.943619 289.772827,224.494461 
	C289.293976,224.762054 288.815125,225.029633 288.336273,225.297226 
z"/>
<path fill="#31A836" opacity="1.000000" stroke="none" 
	d="
M226.000061,269.866394 
	C226.000000,261.581970 226.000000,253.779861 226.000000,245.762024 
	C222.345551,245.762024 218.981827,245.762024 215.582397,245.762024 
	C215.363739,245.114029 215.103119,244.671616 215.077072,244.215820 
	C214.550385,235.000366 214.555801,235.000031 224.023834,235.000000 
	C232.136383,234.999969 240.248932,235.000000 248.252945,235.000000 
	C250.223846,244.741806 249.768356,245.257690 238.146225,246.365417 
	C238.146225,255.978638 238.146225,265.679230 238.146225,275.683350 
	C233.911758,275.683350 230.336609,275.683350 226.000137,275.683350 
	C226.000137,273.862396 226.000137,272.105530 226.000061,269.866394 
z"/>
<path fill="#31A836" opacity="1.000000" stroke="none" 
	d="
M313.997650,271.954651 
	C314.234436,274.784210 313.565918,276.079254 310.773071,276.039001 
	C301.813354,275.909821 292.850616,275.990997 283.445679,275.990997 
	C283.445679,262.408691 283.445679,249.077698 283.445679,235.370987 
	C286.974579,235.370987 290.545654,235.370987 294.801880,235.370987 
	C294.801880,245.263153 294.801880,255.292221 294.801880,265.000031 
	C299.423859,265.000031 303.371368,264.995636 307.318878,265.001007 
	C313.937469,265.010071 313.937469,265.012695 313.997650,271.954651 
z"/>
<path fill="#EE6F30" opacity="1.000000" stroke="none" 
	d="
M220.918610,201.073334 
	C220.461761,209.795792 220.004913,218.518234 219.525375,227.673767 
	C218.422852,227.781448 217.036423,227.916840 215.308868,228.085556 
	C215.308868,214.713547 215.308868,201.641525 215.308868,188.578049 
	C220.452896,185.888718 222.346268,190.541473 224.267487,193.205063 
	C229.868759,200.970627 234.863831,209.173431 240.880981,218.408737 
	C240.880981,207.536179 240.880981,198.062729 240.880981,188.302002 
	C243.055847,188.302002 244.773941,188.302002 247.000000,188.302002 
	C247.000000,197.662201 246.993744,206.941574 247.005798,216.220932 
	C247.007950,217.881073 246.777634,219.624069 247.197006,221.182877 
	C247.927933,223.899704 249.603165,226.846207 245.395370,227.917603 
	C240.148743,229.253494 238.285919,227.718231 236.873932,222.791855 
	C236.260086,220.650177 234.363129,218.877686 233.055420,216.933167 
	C229.437378,211.553268 225.822754,206.171082 221.755600,200.314972 
	C221.049850,199.329834 220.795273,198.819504 220.540695,198.309189 
	C220.318588,198.404907 220.096466,198.500626 219.874359,198.596329 
	C220.222443,199.421997 220.570541,200.247665 220.918610,201.073334 
z"/>
<path fill="#EE6F30" opacity="1.000000" stroke="none" 
	d="
M250.986084,188.166656 
	C251.747040,188.120285 252.507996,188.073914 253.766983,188.246704 
	C254.437515,188.657791 254.626953,188.831192 254.833344,188.986084 
	C254.880020,201.348251 254.926697,213.710403 254.514465,226.536438 
	C252.759262,227.000076 251.462967,226.999817 250.166656,226.999557 
	C250.119995,214.636108 250.073334,202.272644 250.246277,189.322083 
	C250.657791,188.562485 250.831192,188.373047 250.986084,188.166656 
z"/>
<path fill="#EE6F30" opacity="1.000000" stroke="none" 
	d="
M332.023682,229.966125 
	C321.064575,229.992203 310.504211,229.992203 299.943817,229.992203 
	C299.943634,229.693802 299.943420,229.395416 299.943207,229.097015 
	C310.797180,229.097015 321.651123,229.095963 332.505066,229.109634 
	C332.636261,229.109787 332.767212,229.299606 332.898254,229.400909 
	C332.739624,229.580627 332.580994,229.760345 332.023682,229.966125 
z"/>
<path fill="#EE6F30" opacity="1.000000" stroke="none" 
	d="
M250.111008,227.384857 
	C251.462967,226.999817 252.759262,227.000076 254.444458,227.000519 
	C255.011093,227.555344 255.188858,228.109970 255.366608,228.664581 
	C253.596191,228.366440 251.825775,228.068298 250.111008,227.384857 
z"/>
<path fill="#EE6F30" opacity="1.000000" stroke="none" 
	d="
M250.732742,188.139542 
	C250.831192,188.373047 250.657791,188.562485 250.316269,188.856689 
	C250.270905,188.689743 250.375153,188.401093 250.732742,188.139542 
z"/>
<path fill="#EE6F30" opacity="1.000000" stroke="none" 
	d="
M254.860458,188.732742 
	C254.626953,188.831192 254.437515,188.657791 254.143311,188.316269 
	C254.310257,188.270905 254.598907,188.375153 254.860458,188.732742 
z"/>
<path fill="#FFFBFA" opacity="1.000000" stroke="none" 
	d="
M109.696945,197.839127 
	C109.707230,190.199509 109.717514,182.559906 110.128769,174.267792 
	C115.843658,173.882812 121.157578,174.150314 126.447403,174.858948 
	C126.472656,190.068024 126.522003,204.835953 126.172897,219.716125 
	C122.022011,219.348083 118.269577,218.867783 114.251724,218.153839 
	C108.112854,215.846207 102.239388,213.772232 96.158279,211.424332 
	C93.908798,207.808395 91.866974,204.466370 89.819275,200.842148 
	C89.229507,200.197449 88.645607,199.834946 88.061707,199.472458 
	C87.982262,199.977051 87.902824,200.481628 87.781982,201.383453 
	C87.570984,203.637146 87.401382,205.493622 86.872879,207.220917 
	C82.352844,204.737976 78.093430,202.535599 74.091133,199.937164 
	C72.907219,199.168533 71.817101,197.306442 71.765327,195.905441 
	C71.527016,189.457199 71.508881,182.986862 71.825218,176.544739 
	C71.883202,175.363983 73.901947,173.269669 74.941071,173.314774 
	C80.657143,173.562805 86.350044,174.344711 92.050903,174.943405 
	C92.922058,175.792664 93.793213,176.641922 94.874985,178.065887 
	C95.988647,179.832367 96.891701,181.024109 97.794762,182.215866 
	C97.794762,182.215866 97.942085,182.578354 98.033493,183.054565 
	C98.641312,184.124847 99.157730,184.718933 99.674149,185.313019 
	C100.047562,186.018768 100.420975,186.724518 100.976349,187.972534 
	C101.661636,189.116638 102.164955,189.718460 102.668289,190.320282 
	C104.023705,192.664520 105.379120,195.008759 106.960648,197.950684 
	C107.851265,199.098618 108.515778,199.648865 109.180283,200.199112 
	C109.352501,199.412445 109.524719,198.625793 109.696945,197.839127 
z"/>
<path fill="#FEF9F6" opacity="1.000000" stroke="none" 
	d="
M185.099731,222.355362 
	C183.684326,223.848114 182.354980,224.860046 180.532135,226.068909 
	C179.720291,226.646973 179.401962,227.028122 179.083649,227.409271 
	C179.034531,227.583923 178.985397,227.758545 178.309464,228.042175 
	C164.516373,232.714569 151.043777,232.922470 137.388474,231.169586 
	C135.336258,230.906143 133.167618,231.549423 131.052841,231.773270 
	C130.602005,231.789429 130.151184,231.805588 129.204926,231.418182 
	C124.827850,230.257767 120.946213,229.500931 117.064575,228.744080 
	C116.301750,228.674866 115.538933,228.605652 114.313156,228.106186 
	C112.575783,227.410858 111.301361,227.145767 110.026947,226.880676 
	C109.579926,226.882660 109.132912,226.884644 108.186356,226.480301 
	C106.602196,225.806091 105.517570,225.538193 104.432953,225.270294 
	C104.098877,225.224579 103.764809,225.178864 103.180496,224.736206 
	C102.303497,224.159821 101.676735,223.980362 101.049973,223.800903 
	C100.592979,223.746460 100.135979,223.692017 99.247620,223.167206 
	C96.301064,221.518539 93.766289,220.379990 91.275703,219.151825 
	C88.225319,217.647614 86.236404,217.805054 85.880844,221.880112 
	C85.791092,222.908859 84.722870,224.376343 83.770020,224.722748 
	C76.164772,227.487625 72.041000,224.529221 72.032791,216.509613 
	C72.032455,216.177612 72.033546,215.845612 72.032516,215.513611 
	C72.010124,208.297287 70.278557,206.051285 63.118240,203.950638 
	C62.823254,203.799576 62.528267,203.648514 62.004684,202.966919 
	C61.058437,202.017105 60.340782,201.597809 59.623127,201.178528 
	C56.382729,196.907883 53.142338,192.637238 49.818092,188.153000 
	C49.347149,177.676895 52.033886,173.328659 59.779964,171.681351 
	C54.257458,181.770462 55.076855,186.316315 63.989506,194.778152 
	C65.311852,196.033630 66.725899,197.192520 68.503082,198.902649 
	C74.965691,202.906372 81.022751,206.403549 87.414841,210.031494 
	C90.478889,211.375961 93.207916,212.589630 96.097977,214.067627 
	C101.812111,216.259460 107.365189,218.187012 113.259918,220.270844 
	C118.162605,221.401672 122.723640,222.376205 127.671295,223.439178 
	C129.374023,223.661148 130.690109,223.794662 132.279907,224.135132 
	C133.436035,224.416931 134.318466,224.491776 135.629517,224.675232 
	C138.719559,224.994446 141.380951,225.205063 144.328888,225.644257 
	C149.748779,225.779709 154.882126,225.686569 160.015457,225.593414 
	C162.004852,225.378830 163.994232,225.164230 166.704132,224.900269 
	C167.949600,224.557602 168.474579,224.264297 168.999542,223.970993 
	C171.288834,223.038498 173.704315,222.331161 175.844086,221.131897 
	C182.663773,217.309601 183.664246,214.233688 180.879013,206.786819 
	C180.668121,206.222916 180.614517,205.600189 180.237350,203.828156 
	C185.850159,209.648376 187.205215,215.322128 185.099731,222.355362 
z"/>
<path fill="#FFFCFB" opacity="1.000000" stroke="none" 
	d="
M160.474655,187.299591 
	C160.445435,198.956268 160.416214,210.612930 159.804077,222.787735 
	C154.129044,223.224136 149.036911,223.142395 143.845779,222.596802 
	C143.748093,211.751526 143.749390,201.370102 143.952255,190.712494 
	C145.065048,186.579346 143.457245,184.959869 139.594467,185.108505 
	C136.353455,185.233246 133.105087,185.166992 129.855530,185.166260 
	C129.851059,185.147217 129.812958,185.138458 129.866333,184.677597 
	C130.368332,180.270981 130.816956,176.325241 131.265564,172.379486 
	C141.536148,172.372192 151.806717,172.364899 162.871643,172.547150 
	C166.549911,172.930984 169.433868,173.125259 172.317810,173.319550 
	C173.273376,174.249527 174.228928,175.179504 175.211731,176.887207 
	C175.131485,185.127472 175.131485,185.123276 167.625290,185.134796 
	C165.975967,185.137329 164.277618,184.954773 162.697235,185.297394 
	C161.851425,185.480759 161.208908,186.601746 160.474655,187.299591 
z"/>
<path fill="#EE7133" opacity="1.000000" stroke="none" 
	d="
M143.750702,190.988663 
	C143.749390,201.370102 143.748093,211.751526 143.852722,222.990326 
	C143.986557,224.370346 144.014450,224.893021 144.042343,225.415680 
	C141.380951,225.205063 138.719559,224.994446 135.504364,224.436188 
	C133.969101,224.035080 132.987656,223.981628 132.006210,223.928162 
	C130.690109,223.794662 129.374023,223.661148 127.596527,223.064774 
	C126.947205,221.602570 126.759277,220.603226 126.571350,219.603882 
	C126.522003,204.835953 126.472656,190.068024 126.561745,174.485382 
	C126.691917,173.151413 126.683655,172.632187 126.675400,172.112946 
	C127.020729,172.162491 127.366051,172.212036 128.133820,172.756500 
	C128.975143,177.213760 129.394058,181.176102 129.812958,185.138458 
	C129.812958,185.138458 129.851059,185.147217 130.023972,185.511002 
	C132.784836,186.171921 135.401657,186.859360 137.953690,186.670715 
	C141.404678,186.415604 143.248871,187.622849 143.750702,190.988663 
z"/>
<path fill="#F7B695" opacity="1.000000" stroke="none" 
	d="
M87.079819,209.900726 
	C81.022751,206.403549 74.965691,202.906372 68.776520,199.127213 
	C69.104790,196.660431 69.877335,194.487823 69.963356,192.288391 
	C70.169868,187.008057 70.128212,181.713913 70.041061,176.427750 
	C69.987465,173.176727 71.230507,171.308472 74.647247,171.513336 
	C80.447220,171.861069 86.625648,169.961670 91.914200,174.623230 
	C86.350044,174.344711 80.657143,173.562805 74.941071,173.314774 
	C73.901947,173.269669 71.883202,175.363983 71.825218,176.544739 
	C71.508881,182.986862 71.527016,189.457199 71.765327,195.905441 
	C71.817101,197.306442 72.907219,199.168533 74.091133,199.937164 
	C78.093430,202.535599 82.352844,204.737976 86.903679,207.539703 
	C87.222191,208.625351 87.151001,209.263031 87.079819,209.900726 
z"/>
<path fill="#F6B391" opacity="1.000000" stroke="none" 
	d="
M144.328888,225.644257 
	C144.014450,224.893021 143.986557,224.370346 143.951721,223.454163 
	C149.036911,223.142395 154.129044,223.224136 159.698822,223.260437 
	C160.156479,223.744537 160.136520,224.274063 160.066010,225.198502 
	C154.882126,225.686569 149.748779,225.779709 144.328888,225.644257 
z"/>
<path fill="#F6B391" opacity="1.000000" stroke="none" 
	d="
M160.905151,187.216980 
	C161.208908,186.601746 161.851425,185.480759 162.697235,185.297394 
	C164.277618,184.954773 165.975967,185.137329 167.625290,185.134796 
	C175.131485,185.123276 175.131485,185.127472 175.328751,177.206848 
	C178.925385,183.604568 177.165009,186.717102 169.800537,186.791550 
	C166.978043,186.820084 164.157211,187.015182 160.905151,187.216980 
z"/>
<path fill="#F5A780" opacity="1.000000" stroke="none" 
	d="
M126.317574,171.969421 
	C126.683655,172.632187 126.691917,173.151413 126.585846,174.044220 
	C121.157578,174.150314 115.843658,173.882812 110.139725,173.798126 
	C110.744728,173.104309 111.717827,171.506943 112.738564,171.475891 
	C117.138008,171.342087 121.551422,171.667618 126.317574,171.969421 
z"/>
<path fill="#F6B391" opacity="1.000000" stroke="none" 
	d="
M129.866333,184.677597 
	C129.394058,181.176102 128.975143,177.213760 128.651184,172.835083 
	C129.383255,172.321915 130.020401,172.225067 130.961563,172.253860 
	C130.816956,176.325241 130.368332,180.270981 129.866333,184.677597 
z"/>
<path fill="#F6B391" opacity="1.000000" stroke="none" 
	d="
M172.086502,173.068985 
	C169.433868,173.125259 166.549911,172.930984 163.340820,172.535919 
	C165.962173,172.496231 168.908676,172.657333 172.086502,173.068985 
z"/>
<path fill="#F5A780" opacity="1.000000" stroke="none" 
	d="
M97.799652,181.871979 
	C96.891701,181.024109 95.988647,179.832367 95.061691,178.307556 
	C95.960045,179.159042 96.882301,180.343567 97.799652,181.871979 
z"/>
<path fill="#F5A780" opacity="1.000000" stroke="none" 
	d="
M109.370148,197.834991 
	C109.524719,198.625793 109.352501,199.412445 109.180283,200.199112 
	C108.515778,199.648865 107.851265,199.098618 107.137161,198.240250 
	C107.739487,197.898376 108.391418,197.864624 109.370148,197.834991 
z"/>
<path fill="#F5A780" opacity="1.000000" stroke="none" 
	d="
M99.690582,185.000732 
	C99.157730,184.718933 98.641312,184.124847 98.136543,183.220856 
	C98.667809,183.503448 99.187416,184.095947 99.690582,185.000732 
z"/>
<path fill="#F5A780" opacity="1.000000" stroke="none" 
	d="
M102.683495,190.008301 
	C102.164955,189.718460 101.661636,189.116638 101.164551,188.206573 
	C101.680092,188.497650 102.189400,189.096985 102.683495,190.008301 
z"/>
<path fill="#F6B391" opacity="1.000000" stroke="none" 
	d="
M168.807800,223.843781 
	C168.474579,224.264297 167.949600,224.557602 167.119781,224.795303 
	C167.415314,224.398666 168.015686,224.057602 168.807800,223.843781 
z"/>
<path fill="#E3F2E1" opacity="1.000000" stroke="none" 
	d="
M63.230492,204.269135 
	C70.278557,206.051285 72.010124,208.297287 72.032516,215.513611 
	C72.033546,215.845612 72.032455,216.177612 72.032791,216.509613 
	C72.041000,224.529221 76.164772,227.487625 83.770020,224.722748 
	C84.722870,224.376343 85.791092,222.908859 85.880844,221.880112 
	C86.236404,217.805054 88.225319,217.647614 91.275703,219.151825 
	C93.766289,220.379990 96.301064,221.518539 98.951721,222.984741 
	C95.677811,222.159622 92.268425,221.046570 89.149643,220.028397 
	C87.894547,222.480103 87.077400,226.076294 85.772659,226.262863 
	C81.238571,226.911255 76.531143,226.449478 71.902794,226.182251 
	C71.428665,226.154861 70.799965,224.633759 70.670845,223.743713 
	C70.457733,222.274597 70.393433,220.724243 70.616959,219.261688 
	C71.630493,212.630005 69.733856,207.513947 63.230492,204.269135 
z"/>
<path fill="#E3F2E1" opacity="1.000000" stroke="none" 
	d="
M131.396149,231.938934 
	C133.167618,231.549423 135.336258,230.906143 137.388474,231.169586 
	C151.043777,232.922470 164.516373,232.714569 178.090271,228.203415 
	C172.518280,230.019333 166.602585,232.946518 160.544357,233.279312 
	C150.993073,233.803986 141.345993,232.585312 131.396149,231.938934 
z"/>
<path fill="#E3F2E1" opacity="1.000000" stroke="none" 
	d="
M117.346985,228.976349 
	C120.946213,229.500931 124.827850,230.257767 128.882706,231.306671 
	C125.247078,230.802048 121.438232,230.005341 117.346985,228.976349 
z"/>
<path fill="#E3F2E1" opacity="1.000000" stroke="none" 
	d="
M110.290558,227.050385 
	C111.301361,227.145767 112.575783,227.410858 113.969925,227.929962 
	C112.911148,227.862671 111.732658,227.541367 110.290558,227.050385 
z"/>
<path fill="#E3F2E1" opacity="1.000000" stroke="none" 
	d="
M104.646210,225.541748 
	C105.517570,225.538193 106.602196,225.806091 107.867134,226.371582 
	C106.984795,226.383850 105.922134,226.098526 104.646210,225.541748 
z"/>
<path fill="#E3F2E1" opacity="1.000000" stroke="none" 
	d="
M59.778725,201.448853 
	C60.340782,201.597809 61.058437,202.017105 61.873875,202.751984 
	C61.292545,202.618118 60.613430,202.168640 59.778725,201.448853 
z"/>
<path fill="#E3F2E1" opacity="1.000000" stroke="none" 
	d="
M101.228622,224.035980 
	C101.676735,223.980362 102.303497,224.159821 102.980209,224.575806 
	C102.489197,224.631897 101.948227,224.451462 101.228622,224.035980 
z"/>
<path fill="#E3F2E1" opacity="1.000000" stroke="none" 
	d="
M179.273682,227.349945 
	C179.401962,227.028122 179.720291,226.646973 180.209579,226.189026 
	C180.074936,226.505020 179.769333,226.897827 179.273682,227.349945 
z"/>
<path fill="#000000" opacity="1.000000" stroke="none" 
	d="
M385.887054,250.889648 
	C386.077118,253.381042 386.077118,255.684555 386.077118,258.217163 
	C381.981506,258.217163 378.275482,258.217163 374.630463,258.217163 
	C373.188110,265.065186 370.320557,267.460480 365.007050,265.801422 
	C362.143372,264.907288 358.890228,263.772461 360.709625,259.153809 
	C361.505035,257.134583 361.228760,254.519272 360.871674,252.264526 
	C360.436737,249.518097 359.897461,246.602951 363.321228,246.042786 
	C366.143463,245.581039 370.916443,245.374207 371.809357,246.863022 
	C375.185150,252.491653 379.951294,250.899185 384.950317,250.564209 
	C385.432861,250.462601 385.564941,250.582199 385.887054,250.889648 
z"/>
<path fill="#000000" opacity="1.000000" stroke="none" 
	d="
M413.988037,251.492279 
	C413.996216,254.086365 413.936676,256.239594 414.011200,258.388153 
	C414.148804,262.354919 412.623016,265.308838 408.529724,265.866425 
	C404.491486,266.416504 400.864868,265.920410 398.861053,261.204834 
	C395.365417,252.978699 398.551361,245.293457 405.986298,244.995560 
	C410.347229,244.820847 413.347595,246.347748 413.988037,251.492279 
z"/>
<path fill="#000000" opacity="1.000000" stroke="none" 
	d="
M320.795471,204.000244 
	C315.032379,204.000046 309.744720,204.000046 304.235352,204.000046 
	C304.235352,200.262222 304.235352,196.990097 304.235352,193.086304 
	C311.589600,193.086304 318.991364,193.086304 326.686829,193.086304 
	C326.686829,202.797455 326.686829,213.142761 326.686829,223.012939 
	C319.246124,223.012939 311.859863,223.012939 304.242310,223.012939 
	C304.242310,218.606735 304.242310,214.669937 304.242310,210.201111 
	C310.920197,210.201111 317.656769,210.201111 324.779083,210.201111 
	C324.757294,207.007584 326.690643,203.488968 320.795471,204.000244 
z"/>
<path fill="#000000" opacity="1.000000" stroke="none" 
	d="
M338.571991,204.000580 
	C337.507080,204.040192 336.857666,204.079346 336.208252,204.118500 
	C336.189819,204.337814 336.171356,204.557129 336.152924,204.776443 
	C339.373260,204.776443 342.593628,204.776443 345.813965,204.776443 
	C345.814423,205.065842 345.814880,205.355225 345.815338,205.644623 
	C341.773438,205.644623 337.731537,205.644623 333.718353,205.644623 
	C333.718353,201.688187 333.718353,197.660706 333.718353,192.679413 
	C338.777130,193.103394 344.070984,193.280167 349.273895,194.061890 
	C354.014069,194.774094 351.730164,198.818192 351.852325,201.374603 
	C351.978546,204.016785 350.104553,204.570053 347.456604,204.118210 
	C344.706909,203.648972 341.816406,204.005005 338.571991,204.000580 
z"/>
<path fill="#000000" opacity="1.000000" stroke="none" 
	d="
M485.889832,260.113037 
	C488.839630,260.295441 491.636871,260.513977 494.343323,261.130920 
	C495.196411,261.325378 496.166138,262.491730 496.405853,263.393219 
	C496.577423,264.038574 495.825439,265.324768 495.134583,265.737305 
	C491.731262,267.769501 486.588226,265.276428 485.549103,261.010864 
	C485.463531,260.567657 485.582855,260.435394 485.889832,260.113037 
z"/>
<path fill="#000000" opacity="1.000000" stroke="none" 
	d="
M288.521362,225.492386 
	C288.815125,225.029633 289.293976,224.762054 289.772827,224.494461 
	C289.721375,224.943619 289.669922,225.392792 289.351074,225.956528 
	C288.957916,225.943237 288.832184,225.815399 288.521362,225.492386 
z"/>
<path fill="#000000" opacity="1.000000" stroke="none" 
	d="
M221.112976,200.887314 
	C220.570541,200.247665 220.222443,199.421997 219.874359,198.596329 
	C220.096466,198.500626 220.318588,198.404907 220.540695,198.309189 
	C220.795273,198.819504 221.049850,199.329834 221.497894,200.082306 
	C221.563354,200.450073 221.435333,200.575684 221.112976,200.887314 
z"/>
<path fill="#F07C42" opacity="1.000000" stroke="none" 
	d="
M87.414841,210.031509 
	C87.151001,209.263031 87.222191,208.625351 87.262581,207.668884 
	C87.401382,205.493622 87.570984,203.637146 88.116600,201.389282 
	C88.936798,201.040039 89.380974,201.082199 89.825150,201.124359 
	C91.866974,204.466370 93.908798,207.808395 96.044144,211.949219 
	C96.070755,213.099792 96.003845,213.451553 95.936935,213.803314 
	C93.207916,212.589630 90.478889,211.375961 87.414841,210.031509 
z"/>
<path fill="#F7B696" opacity="1.000000" stroke="none" 
	d="
M96.097977,214.067627 
	C96.003845,213.451553 96.070755,213.099792 96.251793,212.223145 
	C102.239388,213.772232 108.112854,215.846207 113.963531,218.425171 
	C113.599930,219.324951 113.259109,219.719757 112.918274,220.114563 
	C107.365189,218.187012 101.812111,216.259460 96.097977,214.067627 
z"/>
<path fill="#F5A780" opacity="1.000000" stroke="none" 
	d="
M113.259926,220.270859 
	C113.259109,219.719757 113.599930,219.324951 114.228943,218.658813 
	C118.269577,218.867783 122.022011,219.348083 126.172897,219.716125 
	C126.759277,220.603226 126.947205,221.602570 127.209900,222.976318 
	C122.723640,222.376205 118.162605,221.401672 113.259926,220.270859 
z"/>
<path fill="#F7B695" opacity="1.000000" stroke="none" 
	d="
M89.819275,200.842148 
	C89.380974,201.082199 88.936798,201.040039 88.158005,200.992050 
	C87.902824,200.481628 87.982262,199.977051 88.061707,199.472458 
	C88.645607,199.834946 89.229507,200.197449 89.819275,200.842148 
z"/>
<path fill="#F5A780" opacity="1.000000" stroke="none" 
	d="
M132.279907,224.135132 
	C132.987656,223.981628 133.969101,224.035080 135.075714,224.327576 
	C134.318466,224.491776 133.436035,224.416931 132.279907,224.135132 
z"/>
<path fill="#F6B391" opacity="1.000000" stroke="none" 
	d="
M143.952255,190.712494 
	C143.248871,187.622849 141.404678,186.415604 137.953690,186.670715 
	C135.401657,186.859360 132.784836,186.171921 130.028442,185.530045 
	C133.105087,185.166992 136.353455,185.233246 139.594467,185.108505 
	C143.457245,184.959869 145.065048,186.579346 143.952255,190.712494 
z"/>
</svg>